<?xml version="1.0" encoding="utf-8"?>
<!-- Generator: Adobe Illustrator 22.0.0, SVG Export Plug-In . SVG Version: 6.00 Build 0)  -->
<svg version="1.1" id="Layer_1" xmlns="http://www.w3.org/2000/svg" xmlns:xlink="http://www.w3.org/1999/xlink" x="0px" y="0px"
	 viewBox="0 0 805.1 929.2" style="enable-background:new 0 0 805.1 929.2;" xml:space="preserve">
<style type="text/css">
	.st0{fill:#ED7D2B;}
	.st1{fill:#348AF0;}
	.st2{fill:#287BCE;}
	.st3{fill:url(#SVGID_1_);}
	.st4{fill:url(#SVGID_2_);}
	.st5{fill:url(#SVGID_3_);}
	.st6{fill:#FFAE73;}
	.st7{fill:url(#SVGID_4_);}
	.st8{fill:#FFFFFF;}
	.st9{fill:url(#SVGID_5_);}
	.st10{fill:url(#SVGID_6_);}
	.st11{fill:url(#SVGID_7_);}
	.st12{fill:url(#SVGID_8_);}
	.st13{fill:url(#SVGID_9_);}
	.st14{fill:url(#SVGID_10_);}
	.st15{fill:url(#SVGID_11_);}
	.st16{fill:url(#SVGID_12_);}
	.st17{fill:url(#SVGID_13_);}
	.st18{fill:url(#SVGID_14_);}
	.st19{fill:url(#SVGID_15_);}
	.st20{fill:url(#SVGID_16_);}
	.st21{fill:#FF912B;}
	.st22{fill:url(#SVGID_17_);}
	.st23{display:none;}
	.st24{display:inline;}
	.st25{display:inline;fill:#FFFFFF;}
	.st26{fill:#15003E;}
	.st27{fill:#11CC7B;}
	.st28{fill:#EDF2EB;}
	.st29{fill:url(#SVGID_18_);}
	.st30{fill:#25E696;}
	.st31{display:inline;fill:#25E696;}
	.st32{fill:#FF8D00;}
	.st33{fill:#2157E0;}
	.st34{clip-path:url(#SVGID_20_);}
	.st35{fill:#FF9417;}
	.st36{fill:#2A5AD9;}
	.st37{enable-background:new    ;}
	.st38{fill:#0FCE7C;}
	.st39{fill:#EFF4EE;}
	.st40{fill:#FFFFFF;filter:url(#Adobe_OpacityMaskFilter);}
	.st41{mask:url(#a_2_);fill:#25E899;}
	.st42{fill:#25E899;}
</style>
<g id="Layer_63_8_">
	<polygon class="st0" points="756.5,260.2 756.5,668.8 402.5,873.9 119.6,710 118.1,709.2 48.5,668.8 48.5,260.2 402.5,55.8 	"/>
</g>
<g>
	<polygon class="st1" points="404,138.2 685.4,300.6 685.4,630.7 404,789.3 121.8,626.2 121.8,300.6 	"/>
	<g>
		<path class="st2" d="M454.1,602.2c0-1.5-45.7-2.2-101.8-2.2s-101.8,0.7-101.8,2.2s45.7,2.2,101.8,2.2S454.1,603.7,454.1,602.2z"/>
		<g>
			
				<linearGradient id="SVGID_1_" gradientUnits="userSpaceOnUse" x1="298.4149" y1="385.4683" x2="307.5489" y2="343.3794" gradientTransform="matrix(1 0 0 -1 0 930.5167)">
				<stop  offset="0" style="stop-color:#002C69"/>
				<stop  offset="1" style="stop-color:#0A4982"/>
			</linearGradient>
			<path class="st3" d="M310.4,546.1L276,595.5l3.7,2.2c0,0,23.2-21.7,25.4-24s14.2-15,14.2-15l12.7-12L310.4,546.1z"/>
			
				<linearGradient id="SVGID_2_" gradientUnits="userSpaceOnUse" x1="308.5224" y1="387.6622" x2="317.6565" y2="345.5733" gradientTransform="matrix(1 0 0 -1 0 930.5167)">
				<stop  offset="0" style="stop-color:#002C69"/>
				<stop  offset="1" style="stop-color:#0A4982"/>
			</linearGradient>
			<path class="st4" d="M309.7,545.3c0,0-1.5,0.7-3,7.5c-1.5,6.7,7.5-4.5,7.5-4.5L309.7,545.3z"/>
			
				<linearGradient id="SVGID_3_" gradientUnits="userSpaceOnUse" x1="328.9987" y1="392.1055" x2="338.1328" y2="350.0167" gradientTransform="matrix(1 0 0 -1 0 930.5167)">
				<stop  offset="0" style="stop-color:#002C69"/>
				<stop  offset="1" style="stop-color:#0A4982"/>
			</linearGradient>
			<path class="st5" d="M326.9,547.6c0,0,18.7,5.2,24,11.2s-13.5,38.9-13.5,38.9h-5.2c0,0,8.2-29.9,8.2-30.7s-25.4-11.2-25.4-11.2
				L326.9,547.6z"/>
			<path class="st6" d="M328.4,489.2v-1.5c0,0-1.5,0.7-3,0.7c-0.7-1.5-0.7-2.2-0.7-2.2h6.7l-0.7,2.2h-2.2V489.2z"/>
			<polygon class="st6" points="370.3,486.2 373.3,487.7 372.6,489.2 374.1,489.9 378.5,486.9 			"/>
			
				<linearGradient id="SVGID_4_" gradientUnits="userSpaceOnUse" x1="335.7675" y1="439.6431" x2="349.5583" y2="359.4059" gradientTransform="matrix(1 0 0 -1 0 930.5167)">
				<stop  offset="0" style="stop-color:#002C69"/>
				<stop  offset="1" style="stop-color:#0A4982"/>
			</linearGradient>
			<path class="st7" d="M332.1,549.1c5.2-8.2,7.5-15,10.5-25.4c12-9,24.7-21,32.2-32.9c-0.7-0.7-2.2-0.7-3-1.5
				c-12.7,11.2-28.4,24-44.9,29.2c3-9.7,3.7-18.7,4.5-29.9c-0.7,0-3,0-3.7,0c-3.7,12-5.2,18.7-9.7,30.7c-2.2,6.7-2.2,12.7-4.5,19.5
				c-2.2,3-6,8.2-6.7,10.5C315.7,547.6,323.9,549.8,332.1,549.1z"/>
			<path class="st6" d="M329.9,515.4c0,0,1.5-9,3-11.2c1.5-2.2,9-3,9.7-2.2c0.7,0.7-1.5,6-1.5,6s2.2,2.2,0,1.5c0,0,0,2.2-0.7,3
				c-0.7,0.7-2.2,0.7-2.2,0.7v0.7L329.9,515.4z"/>
			<polygon class="st8" points="328.4,516.1 329.9,513.1 338.1,512.4 338.1,513.9 			"/>
			
				<linearGradient id="SVGID_5_" gradientUnits="userSpaceOnUse" x1="328.6341" y1="438.4166" x2="342.425" y2="358.1801" gradientTransform="matrix(1 0 0 -1 0 930.5167)">
				<stop  offset="0" style="stop-color:#002C69"/>
				<stop  offset="1" style="stop-color:#0A4982"/>
			</linearGradient>
			<polygon class="st9" points="326.9,519.1 328.4,514.6 338.1,512.4 338.9,514.6 			"/>
			
				<linearGradient id="SVGID_6_" gradientUnits="userSpaceOnUse" x1="333.8769" y1="439.3178" x2="347.6678" y2="359.0807" gradientTransform="matrix(1 0 0 -1 0 930.5167)">
				<stop  offset="0" style="stop-color:#002C69"/>
				<stop  offset="1" style="stop-color:#0A4982"/>
			</linearGradient>
			<path class="st10" d="M332.1,503.4c-0.7,1.5-0.7,6-1.5,8.2c0.7,0,1.5,0,3-0.7c0.7,0,1.5,0,1.5-0.7c0.7-0.7,0.7-1.5,0.7-1.5
				s-0.7-0.7-0.7-1.5s0-0.7,0-1.5c0-0.7,0.7-0.7,1.5-0.7c0.7,0,0.7,0.7,0.7,0.7v0.7c0,0,0,0,0.7,0c0-0.7,0.7-1.5,0.7-2.2
				c0.7,0,2.2-0.7,3-1.5c0-0.7,0.7-2.2,0-3C341.9,499.7,333.6,500.4,332.1,503.4z"/>
			
				<linearGradient id="SVGID_7_" gradientUnits="userSpaceOnUse" x1="262.048" y1="426.9724" x2="275.8389" y2="346.7351" gradientTransform="matrix(1 0 0 -1 0 930.5167)">
				<stop  offset="0" style="stop-color:#002C69"/>
				<stop  offset="1" style="stop-color:#0A4982"/>
			</linearGradient>
			<path class="st11" d="M276.8,595.5l-4.5,6.7h13.5c0,0-2.2-2.2-4.5-2.2c0,0-1.5-0.7-3-0.7l1.5-2.2L276.8,595.5z"/>
			<polygon class="st6" points="278.3,599.2 279,597 276.8,595.5 275.3,598.5 			"/>
			
				<linearGradient id="SVGID_8_" gradientUnits="userSpaceOnUse" x1="318.6267" y1="436.697" x2="332.4176" y2="356.4598" gradientTransform="matrix(1 0 0 -1 0 930.5167)">
				<stop  offset="0" style="stop-color:#002C69"/>
				<stop  offset="1" style="stop-color:#0A4982"/>
			</linearGradient>
			<path class="st12" d="M332.9,597l-2.2,6h13.5c0,0-2.2-2.2-5.2-2.2c0,0-0.7,0-3-0.7l0.7-2.2h-3.7V597z"/>
			<polygon class="st6" points="332.1,599.2 335.9,599.2 336.6,597 332.9,597 			"/>
		</g>
		<g>
			
				<linearGradient id="SVGID_9_" gradientUnits="userSpaceOnUse" x1="380.7385" y1="385.4936" x2="389.8725" y2="343.4047" gradientTransform="matrix(1 0 0 -1 0 930.5167)">
				<stop  offset="0" style="stop-color:#002C69"/>
				<stop  offset="1" style="stop-color:#0A4982"/>
			</linearGradient>
			<path class="st13" d="M392.8,546.1l-34.4,49.4l3.7,2.2c0,0,23.2-21.7,25.4-24c3-2.2,14.2-15,14.2-15l12.7-12L392.8,546.1z"/>
			
				<linearGradient id="SVGID_10_" gradientUnits="userSpaceOnUse" x1="390.1311" y1="387.5323" x2="399.2659" y2="345.4435" gradientTransform="matrix(1 0 0 -1 0 930.5167)">
				<stop  offset="0" style="stop-color:#002C69"/>
				<stop  offset="1" style="stop-color:#0A4982"/>
			</linearGradient>
			<path class="st14" d="M391.3,545.3c0,0-1.5,0.7-3,7.5c-1.5,6.7,7.5-4.5,7.5-4.5L391.3,545.3z"/>
			
				<linearGradient id="SVGID_11_" gradientUnits="userSpaceOnUse" x1="411.3224" y1="392.1306" x2="420.4564" y2="350.0418" gradientTransform="matrix(1 0 0 -1 0 930.5167)">
				<stop  offset="0" style="stop-color:#002C69"/>
				<stop  offset="1" style="stop-color:#0A4982"/>
			</linearGradient>
			<path class="st15" d="M409.2,547.6c0,0,18.7,5.2,24,11.2s-13.5,38.9-13.5,38.9h-5.2c0,0,8.2-29.9,8.2-30.7s-25.4-11.2-25.4-11.2
				L409.2,547.6z"/>
			<path class="st6" d="M410.7,489.2v-1.5c0,0-1.5,0.7-3,0.7c-1.5-0.7-0.7-1.5-0.7-1.5h6.7l-0.7,2.2
				C413,489.2,410.7,489.2,410.7,489.2z"/>
			<polygon class="st6" points="452.6,486.2 454.9,487.7 454.1,489.2 456.4,489.9 460.9,486.9 			"/>
			
				<linearGradient id="SVGID_12_" gradientUnits="userSpaceOnUse" x1="418.0931" y1="439.6635" x2="431.884" y2="359.4263" gradientTransform="matrix(1 0 0 -1 0 930.5167)">
				<stop  offset="0" style="stop-color:#002C69"/>
				<stop  offset="1" style="stop-color:#0A4982"/>
			</linearGradient>
			<path class="st16" d="M414.5,549.1c5.2-8.2,7.5-15,10.5-25.4c12-9,24.7-21,32.2-32.9c-0.7-0.7-2.2-0.7-3-1.5
				c-12.7,11.2-28.4,24-44.9,29.2c3-9.7,3.7-18.7,4.5-29.9c-0.7,0-3,0-3.7,0c-3.7,12-5.2,18.7-9.7,30.7c-2.2,6.7-2.2,12.7-4.5,19.5
				c-2.2,3-6,8.2-6.7,10.5C397.3,547.6,406.2,549.8,414.5,549.1z"/>
			<path class="st6" d="M412.2,515.4c0,0,1.5-9,3-11.2c1.5-2.2,9-3,9.7-2.2c0.7,0.7-1.5,6-1.5,6s2.2,2.2,0,1.5c0,0,0,2.2-0.7,3
				c-0.7,0.7-2.2,0.7-2.2,0.7v0.7L412.2,515.4z"/>
			<polygon class="st8" points="410.7,516.1 411.5,513.1 419.7,512.4 420.5,513.9 			"/>
			
				<linearGradient id="SVGID_13_" gradientUnits="userSpaceOnUse" x1="410.9597" y1="438.4368" x2="424.7506" y2="358.2003" gradientTransform="matrix(1 0 0 -1 0 930.5167)">
				<stop  offset="0" style="stop-color:#002C69"/>
				<stop  offset="1" style="stop-color:#0A4982"/>
			</linearGradient>
			<polygon class="st17" points="409.2,519.1 410.7,514.6 420.5,512.4 421.2,514.6 			"/>
			
				<linearGradient id="SVGID_14_" gradientUnits="userSpaceOnUse" x1="416.2025" y1="439.3382" x2="429.9934" y2="359.101" gradientTransform="matrix(1 0 0 -1 0 930.5167)">
				<stop  offset="0" style="stop-color:#002C69"/>
				<stop  offset="1" style="stop-color:#0A4982"/>
			</linearGradient>
			<path class="st18" d="M414.5,503.4c-0.7,1.5-0.7,6-1.5,8.2c0.7,0,1.5,0,3-0.7c0.7,0,1.5,0,1.5-0.7c0.7-0.7,0.7-1.5,0.7-1.5
				s-0.7-0.7-0.7-1.5s0-0.7,0-1.5c0-0.7,0.7-0.7,1.5-0.7s0.7,0.7,0.7,0.7v0.7c0,0,0,0,0.7,0c0-0.7,0.7-1.5,0.7-2.2
				c0.7,0,2.2-0.7,3-1.5c0-0.7,0.7-2.2,0-3C424.2,499.7,416,500.4,414.5,503.4z"/>
			
				<linearGradient id="SVGID_15_" gradientUnits="userSpaceOnUse" x1="344.3745" y1="426.9927" x2="358.1647" y2="346.7555" gradientTransform="matrix(1 0 0 -1 0 930.5167)">
				<stop  offset="0" style="stop-color:#002C69"/>
				<stop  offset="1" style="stop-color:#0A4982"/>
			</linearGradient>
			<path class="st19" d="M359.1,595.5l-4.5,6.7h13.5c0,0-2.2-2.2-4.5-2.2c0,0-1.5-0.7-3-0.7l1.5-2.2L359.1,595.5z"/>
			<polygon class="st6" points="360.6,599.2 361.3,597 359.1,595.5 357.6,598.5 			"/>
			
				<linearGradient id="SVGID_16_" gradientUnits="userSpaceOnUse" x1="400.9524" y1="436.7172" x2="414.7433" y2="356.48" gradientTransform="matrix(1 0 0 -1 0 930.5167)">
				<stop  offset="0" style="stop-color:#002C69"/>
				<stop  offset="1" style="stop-color:#0A4982"/>
			</linearGradient>
			<path class="st20" d="M415.2,597l-2.2,6h13.5c0,0-2.2-2.2-5.2-2.2c0,0-0.7,0-3-0.7l0.7-2.2h-3.7V597z"/>
			<polygon class="st6" points="414.5,599.2 418.2,599.2 418.2,597 415.2,597 			"/>
		</g>
		<g>
			<path class="st21" d="M634.5,493.7c8.2-5.2,13.5-14.2,13.5-24.7c-0.7-14.2-12-25.4-25.4-26.2c-15.7-0.7-29.2,12-29.2,27.7
				c0,9.7,5.2,18.7,13.5,23.2c0.7,0.7,1.5,1.5,1.5,2.2l-11.2,63.6c0,1.5,0.7,3,2.2,3h43.4c0.7,0,1.5-0.7,2.2-1.5c0-0.7,0-0.7,0-1.5
				l-11.2-63.6C633.8,495.2,633.8,494.4,634.5,493.7z"/>
			<g>
				
					<linearGradient id="SVGID_17_" gradientUnits="userSpaceOnUse" x1="647.0691" y1="477.2473" x2="299.9846" y2="477.2473" gradientTransform="matrix(1 0 0 -1 0 930.5167)">
					<stop  offset="0" style="stop-color:#FF912B;stop-opacity:0.5"/>
					<stop  offset="1" style="stop-color:#FFFFFF;stop-opacity:0"/>
				</linearGradient>
				<path class="st22" d="M633.8,493.7c6.7-3.7,11.2-10.5,12.7-18v-9c-0.7-6.7-4.5-12.7-9.7-17.2l-9.7-5.2L330.6,180.1L300,726.5
					l340.5-164.7l3-0.7c0,0,0,0,0-0.7c0-0.7,0-0.7,0-1.5l-11.2-63.6C633,495.2,633,494.4,633.8,493.7z"/>
			</g>
			<g>
				<path class="st8" d="M564.9,451H395v-1.5c0-3.7-3-6-6-6h-3.7c-3.7,0-6,3-6,6v1.5h-15v-1.5c0-3.7-3-6-6-6h-3.7c-3.7,0-6,3-6,6
					v1.5h-24l-7.5-6c-2.2-2.2-6.7-2.2-9,0l-4.5,3.7c-3.7,3-8.2,1.5-10.5-2.2l-12.7-21.7l0,0c-12-21-31.4-35.2-54.6-35.2
					c-37.4,0-65.9,35.9-65.9,81.6s29.2,81.6,65.9,81.6c26.2,0,48.6-18,59.1-44.2c2.2-6,5.2-11.2,8.2-16.5l0,0
					c2.2-3.7,7.5-4.5,10.5-2.2l4.5,3.7c3,2.2,6.7,2.2,9,0l6.7-6h24v1.5c0,3.7,3,6,6,6h3.7c3.7,0,6-3,6-6v-1.5h15v1.5c0,3.7,3,6,6,6
					h3.7c3.7,0,6-3,6-6v-1.5h77.8v50.1c0,1.5,1.5,3,3,3h7.5c1.5,0,3-1.5,3-3v-12c0-1.5,1.5-3,3-3h6c1.5,0,3-1.5,3-3v-6.7
					c0-1.5,1.5-3,3-3h18.7c1.5,0,3,1.5,3,3v6.7c0,1.5,1.5,3,3,3h6c1.5,0,3,1.5,3,3v12c0,1.5,1.5,3,3,3h7.5c1.5,0,3-1.5,3-3v-50.9
					h16.5c9.7,0,18-8.2,18-18C582.9,459.3,574.6,451,564.9,451z M225.9,528.1c-23.2,0-41.2-25.4-41.2-56.9s18.7-56.9,41.2-56.9
					s41.2,25.4,41.2,56.9C267,502.7,248.3,528.1,225.9,528.1z"/>
				<polygon class="st1" points="347.9,487.7 347.9,459.3 343.4,487.7 				"/>
				<polygon class="st1" points="378.6,486.9 378.6,458.5 375.1,486.9 				"/>
				<rect x="471.9" y="486.9" class="st1" width="76.3" height="10.5"/>
				<path class="st1" d="M323.9,487.9L323.9,487.9c6-6,13.5-9,21.7-9l0,0v9H323.9z"/>
				<rect x="363.6" y="478.2" class="st1" width="15" height="9.5"/>
				<path class="st1" d="M394.3,478.7v9h78.6l0,0h76.3l0,0h14.6c1.7,0,3.4-0.1,5.1-0.6c4.9-1.2,7.8-4.1,10.3-8.4H394.3z"/>
			</g>
		</g>
		<g class="st23">
			<g class="st24">
				<path class="st8" d="M430.9,367.9h-24c-0.7,0-1.5-0.7-1.5-1.5v-15.7c0-0.7,0.7-1.5,1.5-1.5h24c0.7,0,1.5,0.7,1.5,1.5v15.7
					C432.4,367.2,431.7,367.9,430.9,367.9z M407,350.7C406.2,350.7,406.2,350.7,407,350.7l-0.7,16.5c0,0,0,0.7,0.7,0.7h24
					c0,0,0.7,0,0.7-0.7v-16.5c0,0,0-0.7-0.7-0.7h-24V350.7z"/>
			</g>
			<g class="st24">
				<path class="st8" d="M422,360.5h-6c0,0-0.7,0-0.7-0.7V356c0,0,0-0.7,0.7-0.7h6c0,0,0.7,0,0.7,0.7L422,360.5L422,360.5z
					 M416,359.7h5.2v-2.2H416V359.7z"/>
			</g>
			<g class="st24">
				<path class="st8" d="M421.2,349.2c0,0,0-0.7-0.7-0.7H416c0,0-0.7,0-0.7,0.7v1.5c0,0,0,0.7-0.7,0.7c0,0-0.7,0-0.7-0.7v-1.5
					c0-0.7,0.7-1.5,1.5-1.5h4.5C420.5,347.7,421.2,348.5,421.2,349.2L421.2,349.2z"/>
			</g>
			<g class="st24">
				<path class="st8" d="M416,359.7h-7.5c-1.5,0-3-1.5-3-3c0,0,0-0.7,0.7-0.7c0,0,0.7,0,0.7,0.7c0,1.5,0.7,2.2,2.2,2.2
					C409.2,359,416,359,416,359.7L416,359.7z"/>
			</g>
			<g class="st24">
				<path class="st8" d="M429.4,359.7H422c0,0-0.7,0-0.7-0.7s0-0.7,0.7-0.7h7.5c1.5,0,2.2-0.7,2.2-2.2c0,0,0-0.7,0.7-0.7
					c0,0,0.7,0,0.7,0.7C432.4,358.2,430.9,359.7,429.4,359.7z"/>
			</g>
		</g>
		<g class="st23">
			<g class="st24">
				<g>
					<path class="st8" d="M518.5,406.1c-3,0-5.2-2.2-5.2-5.2s2.2-5.2,5.2-5.2c3,0,5.2,2.2,5.2,5.2S521.5,406.1,518.5,406.1z
						 M518.5,396.4c-2.2,0-4.5,2.2-4.5,4.5s2.2,4.5,4.5,4.5c2.2,0,4.5-2.2,4.5-4.5C523,398.6,521.5,396.4,518.5,396.4z"/>
				</g>
			</g>
			<g class="st24">
				<path class="st8" d="M510.3,397.9c-1.5,0-2.2-1.5-2.2-2.2s1.5-2.2,2.2-2.2c1.5,0,2.2,1.5,2.2,2.2S511.8,397.9,510.3,397.9z
					 M510.3,394.1c-0.7,0-1.5,0.7-1.5,1.5c0,0.7,0.7,1.5,1.5,1.5c0.7,0,1.5-0.7,1.5-1.5C511.8,394.9,511,394.1,510.3,394.1z"/>
			</g>
			<g class="st24">
				<path class="st8" d="M514,401.6C514,401.6,513.3,401.6,514,401.6l-3-3.7v-0.7h0.7l2.2,3.7C514.8,400.9,514,400.9,514,401.6
					L514,401.6z"/>
			</g>
			<g class="st24">
				<path class="st8" d="M518.5,396.4C517.8,396.4,517.8,396.4,518.5,396.4l-6.7-2.2c0,0-0.7-0.7,0-0.7c0,0,0.7-0.7,0.7,0l6.7,2.2
					C518.5,395.6,518.5,395.6,518.5,396.4L518.5,396.4z"/>
			</g>
			<g class="st24">
				<g>
					<path class="st8" d="M502,406.1c-3,0-5.2-2.2-5.2-5.2s2.2-5.2,5.2-5.2c3,0,5.2,2.2,5.2,5.2S505,406.1,502,406.1z M502,396.4
						c-2.2,0-4.5,2.2-4.5,4.5s2.2,4.5,4.5,4.5c2.2,0,4.5-2.2,4.5-4.5C506.5,398.6,504.3,396.4,502,396.4z"/>
				</g>
			</g>
			<g class="st24">
				<path class="st8" d="M507.3,401.6L507.3,401.6c-0.7,0-0.7-0.7-0.7-0.7l2.2-3.7h0.7v0.7L507.3,401.6L507.3,401.6z"/>
			</g>
			<g class="st24">
				<path class="st8" d="M502.8,396.4L502.8,396.4c-0.7-0.7-0.7-0.7,0-0.7l6.7-2.2h0.7v0.7L502.8,396.4L502.8,396.4z"/>
			</g>
		</g>
		<g class="st23">
			<g class="st24">
				<path class="st1" d="M419.7,439.8H419V439v-0.7c0.7-0.7,0.7-0.7,1.5,0v0.7v0.7C420.5,439,419.7,439.8,419.7,439.8z"/>
			</g>
			<g class="st24">
				<path class="st1" d="M419,433.1c0-0.7,0.7-0.7,0.7-0.7l0,0c0.7,0,0.7,0.7,0.7,0.7l0,0c0,0.7-0.7,0.7-0.7,0.7l0,0
					C419,433.8,419,433.8,419,433.1z M419,427.8c0-0.7,0.7-0.7,0.7-0.7l0,0c0.7,0,0.7,0.7,0.7,0.7l0,0c0,0.7-0.7,0.7-0.7,0.7l0,0
					C419,428.6,419,428.6,419,427.8z M419,422.6c0-0.7,0.7-0.7,0.7-0.7l0,0c0.7,0,0.7,0.7,0.7,0.7l0,0c0,0.7-0.7,0.7-0.7,0.7l0,0
					C419,423.3,419,422.6,419,422.6z M419,416.6c0-0.7,0.7-0.7,0.7-0.7l0,0c0.7,0,0.7,0.7,0.7,0.7l0,0c0,0.7-0.7,0.7-0.7,0.7l0,0
					C419,418.1,419,417.3,419,416.6z M419,411.4c0-0.7,0.7-0.7,0.7-0.7l0,0c0.7,0,0.7,0.7,0.7,0.7l0,0c0,0.7-0.7,0.7-0.7,0.7l0,0
					C419,412.9,419,412.1,419,411.4z M419,406.1c0-0.7,0.7-0.7,0.7-0.7l0,0c0.7,0,0.7,0.7,0.7,0.7l0,0c0,0.7-0.7,0.7-0.7,0.7l0,0
					C419,406.9,419,406.9,419,406.1z M419,400.9c0-0.7,0.7-0.7,0.7-0.7l0,0c0.7,0,0.7,0.7,0.7,0.7l0,0c0,0.7-0.7,0.7-0.7,0.7l0,0
					C419,401.6,419,400.9,419,400.9z M419,394.9c0-0.7,0.7-0.7,0.7-0.7l0,0c0.7,0,0.7,0.7,0.7,0.7l0,0c0,0.7-0.7,0.7-0.7,0.7l0,0
					C419,396.4,419,395.6,419,394.9z M419,389.7c0-0.7,0.7-0.7,0.7-0.7l0,0c0.7,0,0.7,0.7,0.7,0.7l0,0c0,0.7-0.7,0.7-0.7,0.7l0,0
					C419,391.1,419,390.4,419,389.7z M419,384.4c0-0.7,0.7-0.7,0.7-0.7l0,0c0.7,0,0.7,0.7,0.7,0.7l0,0c0,0.7-0.7,0.7-0.7,0.7l0,0
					C419,385.2,419,385.2,419,384.4z"/>
			</g>
			<g class="st24">
				<path class="st1" d="M419.7,379.9H419v-0.7v-0.7c0.7-0.7,0.7-0.7,1.5,0v0.7v0.7C420.5,379.9,419.7,379.9,419.7,379.9z"/>
			</g>
		</g>
		<g class="st23">
			<g class="st24">
				<path class="st1" d="M511,439.8h-0.7V439v-0.7c0.7-0.7,1.5-0.7,1.5,0v0.7v0.7C511,439,511,439.8,511,439.8z"/>
			</g>
			<g class="st24">
				<path class="st1" d="M509.5,433.8c0-0.7,0.7-0.7,0.7-0.7l0,0c0.7,0,0.7,0.7,0.7,0.7l0,0c0,0.7-0.7,0.7-0.7,0.7l0,0
					C510.3,434.6,509.5,433.8,509.5,433.8z M509.5,428.6c0-0.7,0.7-0.7,0.7-0.7l0,0c0.7,0,0.7,0.7,0.7,0.7l0,0
					c0,0.7-0.7,0.7-0.7,0.7l0,0C510.3,429.3,509.5,429.3,509.5,428.6z M509.5,423.3c0-0.7,0.7-0.7,0.7-0.7l0,0
					c0.7,0,0.7,0.7,0.7,0.7l0,0c0,0.7-0.7,0.7-0.7,0.7l0,0C510.3,424.8,509.5,424.1,509.5,423.3z M509.5,418.8
					c0-0.7,0.7-0.7,0.7-0.7l0,0c0.7,0,0.7,0.7,0.7,0.7l0,0c0,0.7-0.7,0.7-0.7,0.7l0,0C510.3,419.6,509.5,418.8,509.5,418.8z
					 M509.5,413.6c0-0.7,0.7-0.7,0.7-0.7l0,0c0.7,0,0.7,0.7,0.7,0.7l0,0c0,0.7-0.7,0.7-0.7,0.7l0,0
					C510.3,415.1,509.5,414.4,509.5,413.6z"/>
			</g>
			<g class="st24">
				<path class="st1" d="M511,409.9h-0.7v-0.7v-0.7c0.7-0.7,1.5-0.7,1.5,0v0.7v0.7C511,409.9,511,409.9,511,409.9z"/>
			</g>
		</g>
		<g class="st23">
			<g class="st24">
				<path class="st1" d="M419.7,337.3H419v-0.7v-0.7c0.7-0.7,0.7-0.7,1.5,0v0.7v0.7C420.5,337.3,419.7,337.3,419.7,337.3z"/>
			</g>
			<g class="st24">
				<path class="st1" d="M419,330.5c0-0.7,0.7-0.7,0.7-0.7l0,0c0.7,0,0.7,0.7,0.7,0.7l0,0c0,0.7-0.7,0.7-0.7,0.7l0,0
					C419,331.3,419,331.3,419,330.5z M419,324.5c0-0.7,0.7-0.7,0.7-0.7l0,0c0.7,0,0.7,0.7,0.7,0.7l0,0c0,0.7-0.7,0.7-0.7,0.7l0,0
					C419,326,419,325.3,419,324.5z"/>
			</g>
			<g class="st24">
				<path class="st1" d="M419.7,320H419v-0.7v-0.7c0.7-0.7,0.7-0.7,1.5,0v0.7v0.7C420.5,320,419.7,320,419.7,320z"/>
			</g>
		</g>
		<g>
			<path class="st1" d="M224.4,566.3c0-0.7,0.7-0.7,0.7-0.7l0,0c0.7,0,0.7,0.7,0.7,0.7l0,0c0,0.7-0.7,0.7-0.7,0.7l0,0
				C225.1,567.8,224.4,567,224.4,566.3z M224.4,561c0-0.7,0.7-0.7,0.7-0.7l0,0c0.7,0,0.7,0.7,0.7,0.7l0,0c0,0.7-0.7,0.7-0.7,0.7l0,0
				C225.1,562.5,224.4,561.8,224.4,561z"/>
		</g>
		<g class="st23">
			<path class="st25" d="M212.4,580.5c0.7,0.7,2.2,0.7,3,1.5c0.7,0,1.5,0.7,1.5,2.2c0,0.7,0,2.2,0,3c0,1.5,0,1.5-1.5,2.2
				c-3,1.5-6.7,3-9.7,3.7h-0.7c0-1.5,0-2.2,0-3.7c0-0.7,0-0.7,0-1.5c0-1.5,0-1.5,1.5-2.2c2.2-0.7,4.5-1.5,6.7-3
				c0.7,0,1.5-0.7,1.5-0.7s0,0,0-0.7c0,0,0,0-0.7,0C213.1,582,212.4,581.3,212.4,580.5c-1.5,0.7-1.5,0.7-2.2,0.7
				c-1.5,0.7-3,1.5-4.5,2.2c0,0,0,0-0.7,0c0-1.5,0-2.2,0-3.7c0,0,0-0.7,0.7-0.7c2.2-0.7,3.7-1.5,6-2.2c0.7-0.7,2.2-0.7,3-1.5l0,0
				c0,0,0-0.7-0.7-0.7c-1.5-0.7-3-1.5-4.5-1.5c-1.5-0.7-3-1.5-4.5-1.5c-0.7,0-0.7-0.7-0.7-1.5c0.7,0.7,2.2,0.7,3,1.5
				c2.2,0.7,5.2,2.2,7.5,3c0.7,0,0.7,0.7,0.7,1.5v0.7c0,3,0,2.2-2.2,3.7C213.1,579.8,213.1,579.8,212.4,580.5L212.4,580.5z"/>
			<path class="st25" d="M224.4,575.3c0.7,0,0.7-0.7,1.5,2.2c0-0.7,0-1.5,0.7-1.5c0,0,0-0.7,0.7-0.7l0.7,0.7c0,0.7,0.7,1.5,0.7,2.2
				l0,0c0-0.7,0-1.5,0.7-2.2c0-0.7,0-0.7,0.7-0.7c0,0.7-0.7,1.5-0.7,2.2v0.7c0,0,0,0.7-0.7,0.7l-0.7-0.7c0-0.7-0.7-1.5-0.7-2.2
				c0,0.7-0.7,1.5-0.7,2.2c0,0,0,0.7-0.7,0.7l-0.7-0.7C225.1,577.5,225.1,576.8,224.4,575.3z"/>
			<path class="st25" d="M243.1,583.5c0-0.7,0-0.7,0-1.5c0,0,0,0,0-0.7c0,0,0.7,0,0.7,0.7c0,1.5,0,3,0,4.5l0,0h-0.7
				c-0.7,0.7-1.5,0.7-2.2,0c-0.7-0.7-0.7-2.2,0-3C240.8,583.5,241.6,582.8,243.1,583.5z M243.1,585c0-0.7,0-0.7-0.7-1.5
				c-0.7-0.7-0.7-0.7-1.5,0c-0.7,0.7-0.7,2.2,0,2.2c0.7,0,0.7,0,1.5,0C243.1,586.5,243.1,585.7,243.1,585z"/>
			<path class="st25" d="M234.8,579c0-1.5,0-3,0-5.2c0,0,0,0,0-0.7c0,0,0,0,0.7,0.7v0.7l0,0c0.7-0.7,2.2,0,2.2,0
				c0.7,0.7,0.7,2.2,0,3c0,0-0.7,0.7-1.5,0.7C236.3,579.8,235.6,579,234.8,579z M237.8,577.5c0-0.7,0-0.7-0.7-1.5
				c-0.7-0.7-1.5-0.7-1.5,0c-0.7,0.7-0.7,2.2,0,2.2c0.7,0,1.5,0,1.5,0C237.8,578.3,237.8,577.5,237.8,577.5z"/>
			<path class="st25" d="M234.1,578.3c0,1.5-1.5,1.5-3,0.7c-0.7-0.7-0.7-1.5-0.7-2.2c0-0.7,0.7-1.5,2.2-1.5c0.7,0,1.5,0.7,1.5,1.5
				C234.1,577.5,234.1,577.5,234.1,578.3c-1.5-0.7-2.2-0.7-3-0.7l0,0l0.7,0.7C231.9,579,232.6,579,234.1,578.3
				C233.4,578.3,233.4,578.3,234.1,578.3z M233.4,576.8c0-0.7-0.7-1.5-1.5-0.7c-0.7,0-0.7,0.7-0.7,0.7
				C231.9,576.8,232.6,576.8,233.4,576.8z"/>
			<path class="st25" d="M239.3,575.3c0-0.7,0.7-1.5,0.7-1.5c0.7,0,1.5,0,2.2,0c0.7,0.7,0.7,1.5,0,2.2c0.7,0.7,0.7,1.5,0.7,2.2
				c-0.7,0.7-1.5,0.7-2.2,0.7c-0.7,0-1.5-0.7-1.5-1.5c0.7,0,0.7,0,0.7,0c0,0.7,0.7,0.7,1.5,0.7c0.7,0,0.7-0.7,0.7-0.7
				c0-0.7,0-0.7-0.7-0.7h-0.7l0,0h0.7c0.7,0,0.7,0,0.7-0.7c0,0,0-0.7-0.7-0.7c-0.7,0-0.7,0-1.5,0
				C240.1,574.5,240.1,575.3,239.3,575.3C240.1,575.3,239.3,575.3,239.3,575.3z"/>
			<path class="st25" d="M247.6,587.2L247.6,587.2c-1.5,0-1.5,0-2.2,0c-0.7,0-0.7,0-1.5-0.7c0-0.7,0-0.7,0.7-1.5
				c0.7,0,1.5,0,2.2-0.7l-0.7-0.7c-0.7,0-0.7,0-1.5,0.7c0,0,0,0-0.7,0.7c0-1.5,0.7-1.5,1.5-1.5c0.7,0,1.5,0,1.5,1.5
				C247.6,585.7,247.6,586.5,247.6,587.2z M246.8,585.7c-0.7,0-0.7,0-1.5,0.7v0.7c0,0,0,0.7,0.7,0.7
				C246.8,587.2,247.6,586.5,246.8,585.7z"/>
			<path class="st25" d="M254.3,587.2c-1.5,0-2.2-0.7-2.2-2.2c0-1.5,0.7-2.2,2.2-2.2c1.5,0,2.2,0.7,2.2,2.2
				C256.6,586.5,255.8,587.2,254.3,587.2z M253.6,585c0,0.7,0.7,1.5,1.5,1.5c0.7,0,1.5-0.7,1.5-1.5c0-0.7-0.7-1.5-1.5-1.5
				C253.6,583.5,253.6,584.2,253.6,585z"/>
			<path class="st25" d="M228.9,587.2c-1.5,0-2.2-0.7-2.2-2.2c0-1.5,0.7-2.2,2.2-2.2c1.5,0,2.2,0.7,2.2,2.2
				C231.1,586.5,230.4,587.2,228.9,587.2z M230.4,585.7c0-0.7-0.7-1.5-1.5-1.5c-0.7,0-1.5,0.7-1.5,1.5c0,0.7,0.7,1.5,1.5,1.5
				C229.6,587.2,230.4,586.5,230.4,585.7z"/>
			<path class="st25" d="M235.6,587.2c0-1.5,0-3,0-3.7c0.7,0,1.5,0,2.2,0s1.5,0,1.5,1.5c0,0.7,0,1.5,0,3c0,0,0,0,0,0.7
				c0,0-0.7,0-0.7-0.7c0-0.7,0-1.5,0-2.2s0-0.7-0.7-0.7c-0.7,0-0.7,0.7-0.7,0.7C236.3,585.7,236.3,586.5,235.6,587.2
				C236.3,587.2,236.3,587.2,235.6,587.2z"/>
			<path class="st25" d="M234.8,583.5c0,1.5,0,2.2,0,3.7c-0.7,0-1.5,0-2.2,0c-0.7,0-0.7-0.7-0.7-0.7c0-0.7,0-1.5,0-3
				c0,0,0,0,0.7-0.7l0,0c0,0.7,0,1.5,0,2.2s0,0.7,0.7,1.5c0.7,0,0.7,0,0.7-0.7C234.1,585,234.1,584.2,234.8,583.5
				C234.1,583.5,234.1,583.5,234.8,583.5z"/>
			<path class="st25" d="M257.3,583.5c0.7,0,1.5,0,2.2,0s1.5,0,1.5,0.7s0,1.5,0,3c0,0,0,0,0,0.7c0,0,0,0,0-0.7c0-0.7,0-1.5,0-2.2
				c0-0.7,0-1.5-0.7-1.5c-0.7,0-0.7,0.7-1.5,1.5c0,0.7,0,1.5,0,2.2c0,0,0,0,0,0.7c0,0,0,0,0-0.7
				C257.3,585.7,257.3,584.2,257.3,583.5z"/>
			<path class="st25" d="M226.6,583.5c-0.7,0-0.7,0.7-0.7,1.5c0,0.7,0,0.7,0,1.5v0.7c0,0,0,0,0-0.7s0-1.5,0-2.2v-0.7
				c0,0,0-0.7,0.7-0.7c0-0.7,0.7-0.7,1.5,0l-0.7,0.7C225.9,583.5,226.6,583.5,226.6,583.5z"/>
			<path class="st25" d="M248.3,583.5C248.3,583.5,249.1,583.5,248.3,583.5c0.7-0.7,0.7-0.7,0.7-1.5c0,0,0,0.7,0.7,0.7
				c0,0,0,0,0.7,0l0,0h-0.7c0,0.7,0,1.5,0,2.2c0,0,0,0,0.7,0.7c0,0,0,0,0.7,0c0,0,0,0-0.7,0c-0.7,0-0.7,0-0.7-0.7c0-0.7,0-0.7,0-1.5
				C249.1,584.2,249.1,583.5,248.3,583.5L248.3,583.5z"/>
			<path class="st25" d="M252.1,583.5c0,1.5,0,2.2,0,3.7c-0.7,0-0.7,0-0.7-0.7S251.3,585,252.1,583.5
				C251.3,583.5,251.3,583.5,252.1,583.5z"/>
		</g>
		<g class="st23">
			<g class="st24">
				<path class="st8" d="M231.1,467.5l3,6l-2.2,9l-5.2-4.5l0.7-6.7L231.1,467.5z"/>
				<path class="st26" d="M222.9,466c-0.7,0-0.7-0.7-0.7-0.7v-9c0-0.7,0.7-0.7,0.7-0.7l0.7,0.7v9C224.4,465.2,223.6,466,222.9,466"
					/>
				<path class="st8" d="M221.4,464.5h3.7"/>
				<path class="st26" d="M225.1,466h-3.7c-0.7,0-0.7-0.7-0.7-0.7c0-0.7,0.7-0.7,0.7-0.7h3.7c0.7,0,0.7,0.7,0.7,0.7
					C225.9,465.2,225.1,466,225.1,466"/>
				<path class="st8" d="M231.1,467.5l3.7-3.7c-3-3-6.7-4.5-10.5-4.5c-8.2,0-15,6.7-15,15c0,8.2,6.7,15,15,15c3,0,6,1.5,8.2-0.7
					l3,0.7V484l-9-6.7l1.5-9L231.1,467.5"/>
				<path class="st26" d="M223.6,491.4c-9,0-16.5-7.5-16.5-16.5c0-9,7.5-16.5,16.5-16.5c4.5,0,9,1.5,12,5.2l0.7,0.7l-4.5,4.5
					l-2.2-2.2l2.2-2.2c-2.2-2.2-5.2-3-8.2-3c-7.5,0-13.5,6-13.5,13.5c0,7.5,6,13.5,13.5,13.5"/>
				<path class="st27" d="M231.9,483.2l-2.2-2.2c1.5-1.5,2.2-3.7,2.2-6s-0.7-4.5-3-6l-0.7-0.7l1.5-1.5l0.7,0.7l0.7-0.7
					c2.2,2.2,3.7,5.2,3.7,8.2C235.6,478,234.1,481,231.9,483.2"/>
				<path class="st28" d="M220.6,475c0-2.2,1.5-3.7,3.7-3.7s3.7,1.5,3.7,3.7c0,2.2-1.5,3.7-3.7,3.7S220.6,476.5,220.6,475"/>
				<path class="st26" d="M223.6,472.7c-0.7,0-2.2,0.7-2.2,2.2c0,0.7,0.7,2.2,2.2,2.2c0.7,0,2.2-0.7,2.2-2.2
					C225.9,474.2,225.1,472.7,223.6,472.7 M223.6,480.2c-3,0-5.2-2.2-5.2-5.2c0-3,2.2-5.2,5.2-5.2c3,0,5.2,2.2,5.2,5.2
					S226.6,480.2,223.6,480.2 M234.8,464.5l-9,8.2"/>
				<path class="st26" d="M226.6,473.5l-2.2-2.2l9-8.2l2.2,2.2L226.6,473.5z"/>
				<path class="st8" d="M225.1,478l6,4.5l3.7,3v6.7h-6.7"/>
				<path class="st26" d="M236.3,491.4h-12.7v-3h9.7v-3l-9-6.7l1.5-2.2l10.5,7.5V491.4z"/>
				
					<linearGradient id="SVGID_18_" gradientUnits="userSpaceOnUse" x1="237.5072" y1="473.5051" x2="239.8978" y2="473.5051" gradientTransform="matrix(1 0 0 -1 0 930.5167)">
					<stop  offset="0" style="stop-color:#FFFFFF"/>
					<stop  offset="1" style="stop-color:#000000"/>
				</linearGradient>
				<path class="st29" d="M240.1,457l-1.5,1.5l-1.5-1.5l1.5-1.5L240.1,457z"/>
				<path class="st30" d="M233.4,451L233.4,451h-1.5H233.4L233.4,451z M239.3,445.8c0-0.7-0.7-0.7-0.7-0.7c-0.7,0-0.7,0.7-0.7,0.7
					l0,0c0,0.7,0.7,0.7,0.7,0.7C239.3,446.5,239.3,446.5,239.3,445.8"/>
				<path class="st26" d="M217.6,469c-0.7,0-0.7-0.7-0.7-0.7v-12c0-0.7,0.7-0.7,0.7-0.7l0.7,0.7v12C219.1,468.2,218.4,469,217.6,469
					"/>
			</g>
			
				<rect x="238" y="455.9" transform="matrix(0.7071 -0.7071 0.7071 0.7071 -252.9902 302.572)" class="st31" width="1.5" height="1.5"/>
		</g>
		<g class="st23">
			<g class="st24">
				<path class="st32" d="M472.1,464.5c0-3,0.7-5.2,3-6.7c2.2-2.2,4.5-3,7.5-3c5.2,0,9.7,4.5,9.7,9.7c0,5.2-4.5,9.7-9.7,9.7
					C476.6,474.2,472.1,469.7,472.1,464.5z M482.6,472.7c4.5,0,8.2-3.7,8.2-8.2c0-4.5-3.7-8.2-8.2-8.2s-8.2,3.7-8.2,8.2
					C474.4,469,478.1,472.7,482.6,472.7z"/>
				<path class="st32" d="M484.8,463.7h0.7c0,0,0.7,0,0.7,0.7l0.7,0.7c0,0.7,0,0.7,0,1.5s-0.7,0.7-1.5,1.5h-0.7h-0.7l0,0
					c0,0.7,0,0.7,0,1.5l0,0l0,0h-0.7l0,0c0-0.7,0-0.7,0-1.5l0,0l0,0c-0.7,0-0.7,0-1.5,0l0,0l0,0c0,0.7,0,0.7,0,1.5l0,0l0,0l0,0h-0.7
					l0,0l0,0l0,0c0-0.7,0-0.7,0-1.5l0,0l0,0h-0.7c-0.7,0-1.5,0-1.5,0l0,0l0,0v-0.7l0,0h0.7c0,0,0,0,0.7,0l0,0l0,0l0,0
					c0-1.5,0-3.7,0-5.2c0,0,0,0,0-0.7l0,0l0,0l0,0h-0.7l0,0l0,0l0,0v-0.7l0,0l0,0l0,0c0.7,0,1.5,0,2.2,0l0,0l0,0c0-0.7,0-0.7,0-1.5
					l0,0h0.7l0,0c0,0.7,0,0.7,0,1.5l0,0l0,0h0.7l0,0c0-0.7,0-0.7,0-1.5l0,0l0,0l0,0h0.7l0,0c0,0.7,0,0.7,0,1.5l0,0l0,0h0.7h0.7
					c0.7,0,0.7,0.7,0.7,1.5c0,0.7,0,0.7,0,1.5s-0.7,0.7-0.7,1.5C485.6,463.7,485.6,463.7,484.8,463.7L484.8,463.7z M481.1,466.7
					c0,0.7,0,0.7,0,1.5l0,0c0.7,0,0.7,0,1.5,0h0.7c0.7,0,0.7-0.7,0.7-0.7v-0.7c0,0,0-0.7-0.7-0.7c0,0,0,0-0.7,0s-0.7,0-1.5,0h-0.7
					l0,0l0,0l0,0C481.1,465.2,481.1,466,481.1,466.7z M481.8,460.8L481.8,460.8C481.1,460.8,481.1,460.8,481.8,460.8
					C481.1,460.8,481.1,460.8,481.8,460.8c-0.7,0.7-0.7,1.5-0.7,1.5v0.7l0,0h0.7h0.7h0.7c0,0,0.7,0,0.7-0.7v-0.7
					c0-0.7,0-0.7-0.7-0.7h-0.7C482.6,460.8,482.6,460.8,481.8,460.8z"/>
			</g>
			<g class="st24">
				<path class="st33" d="M547,464.5c0,1.5,0,3,0,4.5l0,0c-3,1.5-5.2,3-8.2,4.5l0,0c-3-1.5-5.2-3-8.2-4.5l0,0c0-3,0-6,0-9l0,0
					c3-1.5,5.2-3,8.2-4.5l0,0c3,1.5,5.2,3,8.2,4.5l0,0C547,461.5,547,463,547,464.5z M543.2,464.5c0-0.7,0-1.5,0-2.2l0,0
					c-1.5-0.7-3-1.5-4.5-2.2l0,0c-1.5,0.7-3,1.5-4.5,3l0,0c0,1.5,0,3.7,0,5.2l0,0c1.5,0.7,3,1.5,4.5,2.2l0,0c1.5-0.7,3-1.5,4.5-3
					l0,0C543.2,466,543.2,465.2,543.2,464.5z"/>
			</g>
			<g class="st24">
				<g>
					<defs>
						<rect id="SVGID_19_" x="490.6" y="457.6" width="0.2" height="0.2"/>
					</defs>
					<clipPath id="SVGID_20_">
						<use xlink:href="#SVGID_19_"  style="overflow:visible;"/>
					</clipPath>
					<g transform="matrix(6.260539e-03 0 0 6.260539e-03 66.741 62.8847)" class="st34">
						
							<image style="overflow:visible;enable-background:new    ;" width="1000" height="686" xlink:href="3F41F827F089B8B6.png"  transform="matrix(2.933487e-04 0 0 2.933487e-04 490.5086 457.5984)">
						</image>
					</g>
				</g>
			</g>
		</g>
		<g>
			<g>
				<path class="st35" d="M69.8,65.7C69.8,65.7,69.8,65.8,69.8,65.7c0.1,0.1,0,0.1,0,0.1C69.7,65.9,69.7,65.8,69.8,65.7
					C69.7,65.8,69.7,65.8,69.8,65.7C69.7,65.8,69.7,65.7,69.8,65.7z M69.8,65.8C69.8,65.8,69.8,65.7,69.8,65.8
					C69.7,65.7,69.7,65.8,69.8,65.8C69.7,65.8,69.7,65.8,69.8,65.8C69.8,65.8,69.8,65.8,69.8,65.8z"/>
				<path class="st35" d="M69.8,65.8C69.8,65.8,69.8,65.8,69.8,65.8C69.8,65.8,69.8,65.8,69.8,65.8C69.8,65.8,69.8,65.8,69.8,65.8
					C69.8,65.8,69.8,65.8,69.8,65.8C69.8,65.8,69.8,65.8,69.8,65.8C69.8,65.8,69.8,65.8,69.8,65.8C69.8,65.8,69.8,65.8,69.8,65.8
					C69.8,65.8,69.8,65.8,69.8,65.8C69.8,65.8,69.8,65.8,69.8,65.8C69.8,65.8,69.8,65.8,69.8,65.8C69.8,65.8,69.8,65.8,69.8,65.8
					C69.8,65.8,69.8,65.8,69.8,65.8C69.8,65.8,69.8,65.8,69.8,65.8C69.8,65.8,69.8,65.8,69.8,65.8C69.8,65.8,69.8,65.8,69.8,65.8
					C69.8,65.8,69.8,65.8,69.8,65.8C69.8,65.8,69.8,65.8,69.8,65.8C69.8,65.8,69.8,65.8,69.8,65.8C69.8,65.8,69.8,65.8,69.8,65.8
					C69.8,65.8,69.8,65.8,69.8,65.8C69.8,65.8,69.8,65.8,69.8,65.8C69.8,65.8,69.8,65.8,69.8,65.8C69.8,65.8,69.8,65.8,69.8,65.8
					C69.7,65.8,69.7,65.8,69.8,65.8C69.7,65.8,69.7,65.8,69.8,65.8C69.7,65.8,69.7,65.8,69.8,65.8C69.7,65.8,69.7,65.8,69.8,65.8
					C69.7,65.8,69.7,65.8,69.8,65.8C69.7,65.8,69.7,65.8,69.8,65.8C69.7,65.8,69.7,65.8,69.8,65.8C69.7,65.8,69.7,65.8,69.8,65.8
					C69.7,65.8,69.7,65.8,69.8,65.8C69.7,65.8,69.7,65.8,69.8,65.8C69.7,65.8,69.7,65.8,69.8,65.8C69.7,65.8,69.7,65.8,69.8,65.8
					C69.7,65.8,69.7,65.8,69.8,65.8C69.7,65.8,69.7,65.8,69.8,65.8C69.7,65.8,69.7,65.8,69.8,65.8C69.7,65.8,69.7,65.8,69.8,65.8
					C69.7,65.8,69.7,65.8,69.8,65.8C69.7,65.8,69.7,65.8,69.8,65.8C69.7,65.8,69.7,65.8,69.8,65.8C69.7,65.8,69.7,65.8,69.8,65.8
					C69.7,65.8,69.7,65.8,69.8,65.8C69.7,65.8,69.7,65.8,69.8,65.8C69.7,65.8,69.7,65.8,69.8,65.8C69.7,65.8,69.7,65.8,69.8,65.8
					C69.7,65.8,69.7,65.8,69.8,65.8C69.7,65.8,69.7,65.8,69.8,65.8C69.7,65.8,69.7,65.8,69.8,65.8C69.7,65.8,69.7,65.8,69.8,65.8
					C69.7,65.8,69.7,65.8,69.8,65.8C69.7,65.8,69.7,65.8,69.8,65.8C69.8,65.8,69.8,65.8,69.8,65.8C69.8,65.8,69.8,65.8,69.8,65.8
					C69.8,65.8,69.8,65.8,69.8,65.8C69.8,65.8,69.8,65.8,69.8,65.8C69.8,65.8,69.8,65.8,69.8,65.8C69.8,65.8,69.8,65.8,69.8,65.8
					C69.8,65.8,69.8,65.8,69.8,65.8C69.8,65.8,69.8,65.8,69.8,65.8C69.8,65.8,69.8,65.8,69.8,65.8C69.8,65.8,69.8,65.8,69.8,65.8
					C69.8,65.8,69.8,65.8,69.8,65.8C69.8,65.8,69.8,65.8,69.8,65.8C69.8,65.8,69.8,65.8,69.8,65.8C69.8,65.8,69.8,65.8,69.8,65.8
					C69.8,65.8,69.8,65.8,69.8,65.8C69.8,65.8,69.8,65.8,69.8,65.8C69.8,65.8,69.8,65.8,69.8,65.8C69.8,65.8,69.8,65.8,69.8,65.8
					C69.8,65.8,69.8,65.8,69.8,65.8C69.8,65.8,69.8,65.8,69.8,65.8C69.8,65.8,69.8,65.8,69.8,65.8C69.8,65.8,69.8,65.8,69.8,65.8
					C69.8,65.8,69.8,65.8,69.8,65.8C69.8,65.8,69.8,65.8,69.8,65.8C69.8,65.8,69.8,65.8,69.8,65.8C69.8,65.8,69.8,65.8,69.8,65.8
					C69.8,65.8,69.8,65.8,69.8,65.8C69.8,65.8,69.8,65.8,69.8,65.8C69.8,65.8,69.8,65.8,69.8,65.8z M69.8,65.8
					C69.8,65.8,69.8,65.8,69.8,65.8C69.8,65.8,69.8,65.8,69.8,65.8C69.8,65.8,69.8,65.8,69.8,65.8C69.8,65.8,69.8,65.8,69.8,65.8
					C69.8,65.8,69.8,65.8,69.8,65.8C69.8,65.8,69.8,65.8,69.8,65.8C69.8,65.8,69.8,65.8,69.8,65.8C69.8,65.8,69.8,65.8,69.8,65.8
					C69.8,65.8,69.8,65.8,69.8,65.8C69.8,65.8,69.8,65.8,69.8,65.8C69.8,65.8,69.8,65.8,69.8,65.8C69.8,65.8,69.8,65.8,69.8,65.8
					C69.8,65.8,69.8,65.8,69.8,65.8C69.8,65.8,69.8,65.8,69.8,65.8C69.8,65.8,69.8,65.8,69.8,65.8z M69.8,65.8
					C69.8,65.8,69.8,65.8,69.8,65.8C69.8,65.8,69.8,65.8,69.8,65.8C69.8,65.8,69.8,65.8,69.8,65.8C69.8,65.8,69.8,65.8,69.8,65.8
					C69.8,65.8,69.8,65.8,69.8,65.8C69.8,65.8,69.8,65.8,69.8,65.8C69.8,65.8,69.8,65.8,69.8,65.8C69.8,65.8,69.8,65.8,69.8,65.8
					C69.8,65.8,69.8,65.8,69.8,65.8C69.8,65.8,69.8,65.8,69.8,65.8C69.8,65.8,69.8,65.8,69.8,65.8C69.8,65.8,69.8,65.8,69.8,65.8
					C69.8,65.8,69.8,65.8,69.8,65.8C69.8,65.8,69.8,65.8,69.8,65.8z"/>
			</g>
			<g>
				<path class="st36" d="M70.1,65.8C70.1,65.8,70.1,65.8,70.1,65.8C70.1,65.8,70.1,65.8,70.1,65.8C70.1,65.8,70.1,65.7,70.1,65.8
					C70.1,65.7,70.1,65.7,70.1,65.8C70.1,65.7,70.1,65.8,70.1,65.8c0.1,0,0.1,0,0.1,0c0,0,0,0,0,0.1C70.2,65.8,70.2,65.8,70.1,65.8
					C70.1,65.8,70.1,65.8,70.1,65.8C70.1,65.9,70.1,65.9,70.1,65.8C70.1,65.8,70.1,65.8,70.1,65.8C70.1,65.8,70.1,65.8,70.1,65.8
					C70.1,65.8,70.1,65.8,70.1,65.8z M70.1,65.8C70.1,65.8,70.1,65.8,70.1,65.8C70.1,65.8,70.1,65.8,70.1,65.8
					C70.1,65.8,70.1,65.8,70.1,65.8C70.1,65.8,70.1,65.8,70.1,65.8C70.1,65.8,70.1,65.8,70.1,65.8C70.1,65.8,70.1,65.8,70.1,65.8
					C70.1,65.8,70.1,65.8,70.1,65.8C70.1,65.8,70.1,65.8,70.1,65.8C70.1,65.8,70.1,65.8,70.1,65.8C70.1,65.8,70.1,65.8,70.1,65.8
					C70.1,65.8,70.1,65.8,70.1,65.8C70.1,65.8,70.1,65.8,70.1,65.8C70.1,65.8,70.1,65.8,70.1,65.8z"/>
			</g>
			<g>
				<defs>
					<rect id="SVGID_21_" x="52.1" y="53.9" width="35.8" height="23.9"/>
				</defs>
				<clipPath id="SVGID_22_">
					<use xlink:href="#SVGID_21_"  style="overflow:visible;"/>
				</clipPath>
				<g transform="matrix(2.666763e-04 0 0 2.666763e-04 69.8061 65.7393)" style="clip-path:url(#SVGID_22_);">
					
						<image style="overflow:visible;" width="1000" height="686" xlink:href="ethereum-logo-portrait-black.png"  transform="matrix(2.666763e-04 0 0 2.666763e-04 69.8061 65.7393)">
					</image>
				</g>
			</g>
		</g>
	</g>
</g>
<g id="Layer_63_6_" class="st37">
	<path class="st8" d="M69.3,63.7l-1.8,1.1v2.1l1.8,1.1l1.8-1.1v-2.1L69.3,63.7z M71,66.8l-1.8,1l-1.8-1v-2l1.8-1l1.8,1V66.8z"/>
</g>
<g>
	<path class="st8" d="M67.9,66.5C67.9,66.5,67.9,66.5,67.9,66.5C68,66.5,68,66.5,67.9,66.5C68,66.5,68,66.5,67.9,66.5
		C68,66.5,68,66.5,67.9,66.5C68,66.5,68,66.5,67.9,66.5C68,66.5,68,66.5,67.9,66.5C68,66.5,68,66.5,67.9,66.5
		C68,66.5,68,66.6,67.9,66.5C68,66.6,68,66.6,67.9,66.5c0.1,0.1,0.1,0.1,0.1,0.1c0,0,0,0,0,0c0,0,0,0-0.1,0c0,0,0,0,0,0c0,0,0,0,0,0
		c0,0,0,0,0,0C68,66.6,68,66.6,67.9,66.5C68,66.6,68,66.6,67.9,66.5C68,66.6,68,66.6,67.9,66.5C68,66.6,68,66.6,67.9,66.5
		C68,66.5,68,66.5,67.9,66.5C68,66.6,67.9,66.6,67.9,66.5C67.9,66.6,67.9,66.5,67.9,66.5C67.9,66.5,67.9,66.5,67.9,66.5
		C68,66.5,68,66.5,67.9,66.5C68,66.5,68,66.5,67.9,66.5C68,66.5,68,66.5,67.9,66.5C68,66.5,68,66.5,67.9,66.5
		C67.9,66.5,67.9,66.5,67.9,66.5z"/>
	<path class="st8" d="M68.1,66.5C68.1,66.5,68.1,66.5,68.1,66.5C68.1,66.5,68.1,66.5,68.1,66.5C68.1,66.5,68.1,66.5,68.1,66.5
		C68.1,66.5,68.1,66.5,68.1,66.5C68.1,66.5,68.1,66.5,68.1,66.5C68.1,66.5,68.1,66.5,68.1,66.5C68.1,66.5,68.1,66.5,68.1,66.5
		C68.1,66.5,68.1,66.5,68.1,66.5C68.1,66.5,68.1,66.5,68.1,66.5C68.1,66.5,68.1,66.5,68.1,66.5C68.1,66.5,68.1,66.5,68.1,66.5
		C68.1,66.5,68.1,66.5,68.1,66.5C68.1,66.5,68.1,66.5,68.1,66.5C68.1,66.5,68.1,66.5,68.1,66.5C68.1,66.5,68.1,66.5,68.1,66.5
		C68.1,66.5,68.1,66.5,68.1,66.5C68.1,66.5,68.1,66.5,68.1,66.5z"/>
	<path class="st8" d="M68.2,66.6C68.2,66.6,68.2,66.6,68.2,66.6C68.2,66.6,68.2,66.6,68.2,66.6C68.2,66.6,68.2,66.6,68.2,66.6
		C68.2,66.6,68.2,66.6,68.2,66.6C68.2,66.6,68.2,66.6,68.2,66.6C68.2,66.6,68.2,66.6,68.2,66.6C68.2,66.6,68.2,66.6,68.2,66.6
		C68.2,66.6,68.2,66.6,68.2,66.6C68.2,66.6,68.2,66.6,68.2,66.6C68.2,66.6,68.2,66.6,68.2,66.6z M68.2,66.6
		C68.2,66.6,68.2,66.6,68.2,66.6C68.2,66.6,68.2,66.6,68.2,66.6C68.2,66.6,68.2,66.6,68.2,66.6C68.2,66.6,68.2,66.6,68.2,66.6
		C68.2,66.6,68.2,66.6,68.2,66.6z"/>
	<path class="st8" d="M68.1,66.5C68.1,66.5,68.2,66.5,68.1,66.5C68.2,66.5,68.2,66.5,68.1,66.5C68.2,66.5,68.2,66.5,68.1,66.5
		C68.1,66.5,68.1,66.5,68.1,66.5C68.1,66.5,68.1,66.5,68.1,66.5C68.1,66.5,68.1,66.5,68.1,66.5C68.1,66.5,68.1,66.5,68.1,66.5
		C68.1,66.5,68.1,66.5,68.1,66.5C68.1,66.5,68.1,66.5,68.1,66.5z M68.2,66.5C68.2,66.5,68.2,66.5,68.2,66.5
		C68.2,66.5,68.1,66.5,68.2,66.5C68.1,66.5,68.1,66.5,68.2,66.5C68.1,66.5,68.2,66.5,68.2,66.5C68.2,66.5,68.2,66.5,68.2,66.5z"/>
	<path class="st8" d="M68.1,66.5C68.1,66.5,68.1,66.5,68.1,66.5C68.1,66.5,68.1,66.5,68.1,66.5C68.1,66.5,68.1,66.5,68.1,66.5
		C68.1,66.5,68.1,66.5,68.1,66.5C68.1,66.5,68.1,66.5,68.1,66.5C68.1,66.5,68.1,66.5,68.1,66.5C68.1,66.5,68.1,66.5,68.1,66.5
		C68.1,66.5,68.1,66.5,68.1,66.5C68.1,66.5,68.1,66.5,68.1,66.5C68.1,66.5,68.1,66.5,68.1,66.5z M68.1,66.5
		C68.1,66.5,68.1,66.5,68.1,66.5C68.1,66.5,68.1,66.5,68.1,66.5C68.1,66.5,68.1,66.5,68.1,66.5z"/>
	<path class="st8" d="M68.2,66.5C68.2,66.5,68.2,66.5,68.2,66.5C68.2,66.5,68.2,66.5,68.2,66.5C68.2,66.5,68.2,66.5,68.2,66.5
		C68.2,66.5,68.2,66.5,68.2,66.5C68.2,66.5,68.2,66.5,68.2,66.5C68.2,66.5,68.2,66.5,68.2,66.5C68.2,66.5,68.2,66.5,68.2,66.5
		C68.2,66.5,68.2,66.5,68.2,66.5C68.2,66.5,68.2,66.5,68.2,66.5C68.2,66.5,68.2,66.5,68.2,66.5C68.2,66.5,68.2,66.5,68.2,66.5
		C68.2,66.5,68.2,66.5,68.2,66.5C68.2,66.5,68.2,66.5,68.2,66.5C68.2,66.5,68.2,66.5,68.2,66.5C68.2,66.5,68.2,66.5,68.2,66.5
		C68.2,66.5,68.2,66.5,68.2,66.5C68.2,66.5,68.2,66.5,68.2,66.5C68.2,66.5,68.2,66.5,68.2,66.5z"/>
	<path class="st8" d="M68.2,66.6C68.2,66.6,68.2,66.6,68.2,66.6C68.2,66.6,68.2,66.6,68.2,66.6C68.2,66.6,68.2,66.6,68.2,66.6
		C68.2,66.6,68.2,66.6,68.2,66.6C68.2,66.6,68.2,66.6,68.2,66.6C68.2,66.6,68.2,66.6,68.2,66.6C68.2,66.6,68.2,66.6,68.2,66.6
		C68.2,66.6,68.2,66.6,68.2,66.6C68.2,66.6,68.2,66.6,68.2,66.6C68.2,66.6,68.2,66.6,68.2,66.6C68.2,66.6,68.2,66.6,68.2,66.6z
		 M68.2,66.6C68.2,66.6,68.2,66.6,68.2,66.6C68.2,66.6,68.2,66.6,68.2,66.6C68.2,66.6,68.2,66.6,68.2,66.6
		C68.2,66.6,68.2,66.6,68.2,66.6z"/>
	<path class="st8" d="M68.3,66.6C68.3,66.6,68.3,66.6,68.3,66.6C68.3,66.6,68.3,66.6,68.3,66.6C68.3,66.6,68.3,66.6,68.3,66.6
		C68.3,66.6,68.3,66.6,68.3,66.6z M68.3,66.6C68.3,66.6,68.3,66.6,68.3,66.6C68.3,66.6,68.3,66.6,68.3,66.6
		C68.3,66.6,68.3,66.6,68.3,66.6C68.3,66.6,68.3,66.6,68.3,66.6z"/>
	<path class="st8" d="M68.1,66.6C68.1,66.6,68.1,66.6,68.1,66.6C68.1,66.6,68.1,66.6,68.1,66.6C68.1,66.6,68.1,66.6,68.1,66.6
		C68.1,66.6,68.1,66.6,68.1,66.6z M68.1,66.6C68.1,66.6,68.1,66.6,68.1,66.6C68.1,66.6,68.1,66.6,68.1,66.6
		C68.1,66.6,68.1,66.6,68.1,66.6C68.1,66.6,68.1,66.6,68.1,66.6z"/>
	<path class="st8" d="M68.1,66.6C68.1,66.6,68.1,66.6,68.1,66.6C68.1,66.6,68.1,66.6,68.1,66.6C68.1,66.6,68.1,66.6,68.1,66.6
		C68.1,66.6,68.1,66.6,68.1,66.6C68.1,66.6,68.1,66.6,68.1,66.6C68.1,66.6,68.1,66.6,68.1,66.6C68.1,66.6,68.1,66.6,68.1,66.6
		C68.1,66.6,68.1,66.6,68.1,66.6C68.1,66.6,68.1,66.6,68.1,66.6C68.1,66.6,68.1,66.6,68.1,66.6C68.1,66.6,68.1,66.6,68.1,66.6
		C68.1,66.6,68.1,66.6,68.1,66.6z"/>
	<path class="st8" d="M68.1,66.6C68.1,66.6,68.1,66.6,68.1,66.6C68.1,66.6,68.2,66.6,68.1,66.6C68.2,66.6,68.2,66.6,68.1,66.6
		C68.2,66.6,68.2,66.6,68.1,66.6C68.2,66.6,68.2,66.6,68.1,66.6C68.2,66.6,68.2,66.6,68.1,66.6C68.2,66.6,68.2,66.6,68.1,66.6
		C68.2,66.6,68.1,66.6,68.1,66.6C68.1,66.6,68.1,66.6,68.1,66.6C68.1,66.6,68.1,66.6,68.1,66.6z"/>
	<path class="st8" d="M68.3,66.6C68.3,66.6,68.3,66.6,68.3,66.6C68.3,66.6,68.3,66.6,68.3,66.6C68.3,66.6,68.3,66.6,68.3,66.6
		C68.3,66.6,68.3,66.6,68.3,66.6C68.3,66.6,68.3,66.6,68.3,66.6C68.3,66.6,68.3,66.6,68.3,66.6C68.3,66.6,68.3,66.6,68.3,66.6
		C68.3,66.6,68.3,66.6,68.3,66.6C68.3,66.6,68.3,66.6,68.3,66.6C68.3,66.6,68.3,66.6,68.3,66.6C68.3,66.6,68.3,66.6,68.3,66.6
		C68.3,66.6,68.3,66.6,68.3,66.6z"/>
	<path class="st8" d="M68.1,66.6C68.1,66.6,68.1,66.6,68.1,66.6C68.1,66.6,68.1,66.6,68.1,66.6C68.1,66.6,68.1,66.6,68.1,66.6
		C68.1,66.6,68.1,66.6,68.1,66.6C68.1,66.6,68.1,66.6,68.1,66.6C68.1,66.6,68.1,66.6,68.1,66.6C68.1,66.6,68.1,66.6,68.1,66.6
		C68.1,66.6,68.1,66.6,68.1,66.6C68.1,66.6,68.1,66.6,68.1,66.6C68.1,66.6,68.1,66.6,68.1,66.6C68.1,66.6,68.1,66.6,68.1,66.6
		C68.1,66.6,68.1,66.6,68.1,66.6z"/>
	<path class="st8" d="M68.2,66.6C68.2,66.6,68.2,66.6,68.2,66.6C68.2,66.6,68.2,66.6,68.2,66.6C68.2,66.6,68.2,66.6,68.2,66.6
		C68.2,66.6,68.2,66.6,68.2,66.6C68.2,66.6,68.2,66.6,68.2,66.6C68.2,66.6,68.2,66.6,68.2,66.6C68.2,66.6,68.2,66.6,68.2,66.6
		C68.2,66.6,68.2,66.6,68.2,66.6C68.2,66.6,68.2,66.6,68.2,66.6C68.2,66.6,68.2,66.6,68.2,66.6C68.2,66.6,68.2,66.6,68.2,66.6
		C68.2,66.6,68.2,66.6,68.2,66.6C68.2,66.6,68.2,66.6,68.2,66.6C68.2,66.6,68.2,66.6,68.2,66.6z"/>
	<path class="st8" d="M68.3,66.6C68.3,66.6,68.3,66.6,68.3,66.6C68.2,66.6,68.2,66.6,68.3,66.6C68.2,66.6,68.2,66.6,68.3,66.6
		C68.2,66.6,68.2,66.6,68.3,66.6z"/>
</g>
<g>
	<path class="st8" d="M68.2,65.8L68.2,65.8L68.2,65.8L68.2,65.8L68.2,65.8L68.2,65.8z"/>
	<path class="st26" d="M68.1,65.8C68.1,65.8,68.1,65.8,68.1,65.8L68.1,65.8C68.1,65.7,68.1,65.7,68.1,65.8
		C68.1,65.7,68.1,65.7,68.1,65.8L68.1,65.8C68.1,65.8,68.1,65.8,68.1,65.8"/>
	<path class="st8" d="M68.1,65.8L68.1,65.8"/>
	<path class="st26" d="M68.1,65.8L68.1,65.8C68.1,65.8,68.1,65.8,68.1,65.8C68.1,65.8,68.1,65.8,68.1,65.8L68.1,65.8
		C68.1,65.8,68.2,65.8,68.1,65.8C68.2,65.8,68.1,65.8,68.1,65.8"/>
	<path class="st8" d="M68.2,65.8L68.2,65.8C68.2,65.7,68.2,65.7,68.2,65.8c-0.1-0.1-0.1,0-0.1,0c0,0.1,0,0.1,0.1,0.1c0,0,0,0,0.1,0
		l0,0l0,0L68.2,65.8L68.2,65.8L68.2,65.8"/>
	<path class="st26" d="M68.1,65.9c-0.1,0-0.1,0-0.1-0.1c0-0.1,0-0.1,0.1-0.1c0,0,0.1,0,0.1,0l0,0l0,0l0,0l0,0c0,0,0,0-0.1,0
		c0,0-0.1,0-0.1,0.1C68,65.9,68.1,65.9,68.1,65.9"/>
	<path class="st38" d="M68.2,65.9L68.2,65.9C68.2,65.9,68.2,65.9,68.2,65.9C68.2,65.8,68.2,65.8,68.2,65.9l0-0.1l0,0l0,0l0,0
		C68.2,65.8,68.2,65.8,68.2,65.9C68.2,65.9,68.2,65.9,68.2,65.9"/>
	<path class="st39" d="M68.1,65.8C68.1,65.8,68.1,65.8,68.1,65.8C68.2,65.8,68.2,65.8,68.1,65.8C68.2,65.8,68.2,65.9,68.1,65.8
		C68.1,65.9,68.1,65.8,68.1,65.8"/>
	<path class="st26" d="M68.1,65.8C68.1,65.8,68.1,65.8,68.1,65.8C68.1,65.8,68.1,65.8,68.1,65.8C68.1,65.8,68.2,65.8,68.1,65.8
		C68.2,65.8,68.1,65.8,68.1,65.8 M68.1,65.9C68.1,65.9,68.1,65.9,68.1,65.9C68.1,65.8,68.1,65.8,68.1,65.9
		C68.2,65.8,68.2,65.8,68.1,65.9C68.2,65.9,68.2,65.9,68.1,65.9 M68.2,65.8L68.2,65.8"/>
	<path class="st26" d="M68.2,65.8L68.2,65.8L68.2,65.8L68.2,65.8L68.2,65.8z"/>
	<path class="st8" d="M68.1,65.9L68.1,65.9L68.1,65.9L68.1,65.9L68.1,65.9"/>
	<path class="st26" d="M68.2,65.9L68.2,65.9L68.2,65.9L68.2,65.9L68.2,65.9L68.2,65.9L68.2,65.9L68.2,65.9L68.2,65.9z"/>
	<defs>
		<filter id="Adobe_OpacityMaskFilter" filterUnits="userSpaceOnUse" x="68.2" y="65.7" width="0" height="0">
			<feColorMatrix  type="matrix" values="1 0 0 0 0  0 1 0 0 0  0 0 1 0 0  0 0 0 1 0"/>
		</filter>
	</defs>
	<mask maskUnits="userSpaceOnUse" x="68.2" y="65.7" width="0" height="0" id="a_2_">
		<path class="st40" d="M68,65.6L68,65.6L68,65.6L68,65.6L68,65.6z"/>
	</mask>
	<path class="st41" d="M68.2,65.7L68.2,65.7L68.2,65.7L68.2,65.7L68.2,65.7z"/>
	<path class="st42" d="M68.2,65.7L68.2,65.7L68.2,65.7L68.2,65.7L68.2,65.7z M68.2,65.6C68.2,65.6,68.2,65.6,68.2,65.6
		C68.2,65.6,68.2,65.6,68.2,65.6C68.2,65.6,68.2,65.6,68.2,65.6C68.2,65.6,68.2,65.7,68.2,65.6C68.2,65.7,68.2,65.6,68.2,65.6"/>
	<path class="st42" d="M68.2,65.7L68.2,65.7L68.2,65.7L68.2,65.7L68.2,65.7z"/>
	<path class="st26" d="M68.1,65.8C68.1,65.8,68.1,65.8,68.1,65.8L68.1,65.8C68.1,65.7,68.1,65.7,68.1,65.8
		C68.1,65.7,68.1,65.7,68.1,65.8L68.1,65.8C68.1,65.8,68.1,65.8,68.1,65.8"/>
</g>
</svg>
